<svg width="17" height="15" viewBox="0 0 17 15" fill="none" xmlns="http://www.w3.org/2000/svg">
<path d="M15.5 3.56667V1.66667C15.5 0.75 14.75 0 13.8333 0H2.16667C1.24167 0 0.5 0.75 0.5 1.66667V13.3333C0.5 14.25 1.24167 15 2.16667 15H13.8333C14.75 15 15.5 14.25 15.5 13.3333V11.4333C15.9917 11.1417 16.3333 10.6167 16.3333 10V5C16.3333 4.38333 15.9917 3.85833 15.5 3.56667ZM14.6667 5V10H8.83333V5H14.6667ZM2.16667 13.3333V1.66667H13.8333V3.33333H8.83333C7.91667 3.33333 7.16667 4.08333 7.16667 5V10C7.16667 10.9167 7.91667 11.6667 8.83333 11.6667H13.8333V13.3333H2.16667Z" fill="#888C9F"/>
</svg>
